#!OML:ASF \\sashay\E\Suitcase\Project 1\Capture day 1\Session 1\Male1.ASF
:FULLY-SPECIFIED
:DEGREES
85
root 1.33174 17.4412 -33.7382 5.97648 0.0528288 -2.65176
lowerback 1.43635 -1.58894 0.493633
upperback -1.00319 -2.06907 2.44181
thorax -1.76078 -1.02508 2.28867
lowerneck -12.8885 -9.50497 -8.27528
upperneck 12.3445 -12.1104 5.24152
head 6.69374 -5.83924 1.77064
rclavicle 9.7156e-015 -3.97569e-014
rhumerus -40.2324 -26.8399 -57.5637
rradius 15.2612
rwrist 6.13137
rhand -5.39611 10.0148
rfingers 7.12502
rthumb 20.4128 -18.9322
lclavicle 9.7156e-015 -3.97569e-014
lhumerus -39.9425 2.88148 82.3005
lradius 42.7866
lwrist -3.05749
lhand -1.56153 42.008
lfingers 7.12502
lthumb 24.0939 70.5152
rfemur -11.3445 0.662458 25.2981
rtibia 27.3851
rfoot -21.6559 -9.35787
rtoes 12.3975
lfemur -15.4235 -6.28926 -19.3732
ltibia 30.9821
lfoot -21.5648 3.32566
ltoes 5.43125
86
root 1.33625 17.4406 -33.7287 5.96801 0.098273 -2.51863
lowerback 1.40414 -1.62471 0.516496
upperback -1.06019 -2.11609 2.41117
thorax -1.8015 -1.04865 2.24586
lowerneck -12.9791 -9.41409 -8.24873
upperneck 12.5861 -11.9733 5.09795
head 6.76672 -5.78039 1.72922
rclavicle -1.0958e-014 -1.70955e-014
rhumerus -40.3284 -26.2973 -57.9051
rradius 15.5687
rwrist 5.60278
rhand -5.26183 10.3009
rfingers 7.12502
rthumb 20.5418 -18.6323
lclavicle -1.0958e-014 -1.70955e-014
lhumerus -40.06 2.78366 82.4427
lradius 43.0592
lwrist -2.88319
lhand -1.43457 40.9914
lfingers 7.12502
lthumb 24.2156 69.4825
rfemur -11.2753 0.389095 25.1324
rtibia 27.3164
rfoot -21.5388 -9.30391
rtoes 11.6072
lfemur -15.3697 -6.40005 -19.5537
ltibia 31.0037
lfoot -21.4143 3.40326
ltoes 4.93412
87
root 1.33334 17.4447 -33.7346 6.04794 0.0369766 -2.53274
lowerback 1.36463 -1.63239 0.545363
upperback -1.01295 -2.12682 2.46013
thorax -1.72968 -1.05459 2.27792
lowerneck -13.4082 -9.41981 -8.17544
upperneck 12.9862 -11.949 4.91394
head 6.95044 -5.76888 1.63645
rclavicle -2.38293e-014 -5.56597e-015
rhumerus -40.1968 -26.3491 -57.9595
rradius 15.5904
rwrist 5.75046
rhand -5.55451 9.97785
rfingers 7.12502
rthumb 20.2606 -18.9854
lclavicle -2.38293e-014 -5.56597e-015
lhumerus -39.7277 2.74145 82.6899
lradius 43.0474
lwrist -3.15292
lhand -1.7258 40.2918
lfingers 7.12502
lthumb 23.9364 68.8198
rfemur -11.3778 0.51003 25.1759
rtibia 27.3204
rfoot -21.4789 -9.41848
rtoes 11.6104
lfemur -15.489 -6.16818 -19.5084
ltibia 30.9871
lfoot -21.5489 3.28416
ltoes 4.82607
88
root 1.33624 17.4437 -33.722 5.97247 0.093804 -2.48621
lowerback 1.23305 -1.69012 0.604604
upperback -0.922058 -2.20716 2.47971
thorax -1.56119 -1.09636 2.2603
lowerneck -13.413 -9.29187 -8.10659
upperneck 12.924 -11.7785 4.87778
head 6.91339 -5.68705 1.63666
rclavicle 5.96354e-015 -1.23246e-014
rhumerus -40.1663 -26.6915 -57.7801
rradius 15.4945
rwrist 6.38848
rhand -5.66728 10.515
rfingers 7.12502
rthumb 20.1522 -18.4598
lclavicle 5.96354e-015 -1.23246e-014
lhumerus -39.6074 2.60909 82.9671
lradius 43.4581
lwrist -2.85895
lhand -1.37177 41.0622
lfingers 7.12502
lthumb 24.2758 69.5452
rfemur -11.2092 0.431804 25.0951
rtibia 27.2544
rfoot -21.538 -9.32919
rtoes 11.027
lfemur -15.3422 -6.25653 -19.5937
ltibia 30.9888
lfoot -21.4557 3.36161
ltoes 4.44471
89
root 1.33407 17.4414 -33.7243 6.00899 0.166665 -2.52835
lowerback 1.20498 -1.78072 0.753018
upperback -0.888483 -2.32657 2.47795
thorax -1.51288 -1.15792 2.17644
lowerneck -13.739 -9.25307 -7.96791
upperneck 13.238 -11.6995 4.62779
head 7.04093 -5.65499 1.52635
rclavicle -2.7308e-014 9.93923e-015
rhumerus -40.0365 -27.0531 -57.7732
rradius 15.3817
rwrist 6.95621
rhand -6.02106 10.4157
rfingers 7.12502
rthumb 19.8121 -18.5946
lclavicle -2.7308e-014 9.93923e-015
lhumerus -39.4844 2.58224 82.9993
lradius 43.6392
lwrist -2.95954
lhand -1.57238 40.4027
lfingers 7.12502
lthumb 24.0835 68.9113
rfemur -11.2749 0.443667 25.1687
rtibia 27.2396
rfoot -21.2145 -9.39966
rtoes 12.7134
lfemur -15.3977 -6.41914 -19.5296
ltibia 30.9868
lfoot -21.3423 3.50288
ltoes 4.96867
90
root 1.33573 17.4421 -33.7218 5.97725 0.0578509 -2.54158
lowerback 1.30351 -1.80009 0.856284
upperback -0.955489 -2.346 2.50278
thorax -1.63948 -1.16803 2.14991
lowerneck -13.7642 -9.13743 -8.00234
upperneck 13.2746 -11.5312 4.60918
head 7.04747 -5.57707 1.54438
rclavicle -2.01766e-014 -3.57812e-015
rhumerus -40.1774 -27.4635 -57.411
rradius 15.1688
rwrist 7.85649
rhand -6.25399 10.917
rfingers 7.12502
rthumb 19.5882 -18.1162
lclavicle -2.01766e-014 -3.57812e-015
lhumerus -39.549 2.33541 83.2577
lradius 43.8481
lwrist -2.64451
lhand -0.981887 42.5453
lfingers 7.12502
lthumb 24.6496 70.9779
rfemur -11.1844 0.590768 25.1617
rtibia 27.1411
rfoot -21.6177 -9.91401
rtoes 9.56662
lfemur -15.3517 -6.40602 -19.5371
ltibia 31.0208
lfoot -21.3711 3.52747
ltoes 4.49155
91
root 1.33268 17.4464 -33.7236 6.0367 0.162508 -2.62527
lowerback 1.24938 -1.84185 0.967588
upperback -0.943203 -2.39982 2.59214
thorax -1.59569 -1.19588 2.17852
lowerneck -13.8456 -9.0731 -7.88022
upperneck 13.3971 -11.427 4.37384
head 7.0726 -5.53887 1.4585
rclavicle 2.22142e-014 3.57812e-015
rhumerus -39.7688 -26.0818 -58.6178
rradius 15.6892
rwrist 5.53401
rhand -7.03721 9.96518
rfingers 7.12502
rthumb 18.835 -19.1429
lclavicle 2.22142e-014 3.57812e-015
lhumerus -39.3353 2.31404 83.4604
lradius 43.8649
lwrist -2.58448
lhand -1.71934 40.9211
lfingers 7.12502
lthumb 23.9426 69.4483
rfemur -11.2324 0.509202 25.2718
rtibia 27.1228
rfoot -21.1722 -9.33535
rtoes 12.5814
lfemur -15.4545 -6.29679 -19.4166
ltibia 31.0376
lfoot -21.5014 3.36037
ltoes 4.30637
